<mxfile host="65bd71144e">
    <diagram id="NPLdF6pdnLW_kKMN6IlW" name="Page-1">
        <mxGraphModel dx="1347" dy="1113" grid="1" gridSize="10" guides="1" tooltips="1" connect="1" arrows="1" fold="1" page="1" pageScale="1" pageWidth="850" pageHeight="1100" math="0" shadow="0">
            <root>
                <mxCell id="0"/>
                <mxCell id="1" parent="0"/>
                <mxCell id="24" style="edgeStyle=none;html=1;entryX=0.5;entryY=0;entryDx=0;entryDy=0;exitX=0.238;exitY=1.012;exitDx=0;exitDy=0;exitPerimeter=0;" edge="1" parent="1" source="14" target="21">
                    <mxGeometry relative="1" as="geometry">
                        <Array as="points">
                            <mxPoint x="360" y="410"/>
                            <mxPoint x="280" y="410"/>
                        </Array>
                    </mxGeometry>
                </mxCell>
                <mxCell id="25" style="edgeStyle=none;html=1;entryX=0.555;entryY=0.021;entryDx=0;entryDy=0;entryPerimeter=0;" edge="1" parent="1" source="14" target="22">
                    <mxGeometry relative="1" as="geometry">
                        <Array as="points">
                            <mxPoint x="420" y="410"/>
                            <mxPoint x="480" y="410"/>
                        </Array>
                    </mxGeometry>
                </mxCell>
                <mxCell id="26" style="edgeStyle=none;html=1;entryX=0.557;entryY=1.021;entryDx=0;entryDy=0;entryPerimeter=0;exitX=0.727;exitY=0;exitDx=0;exitDy=0;exitPerimeter=0;" edge="1" parent="1" source="14" target="19">
                    <mxGeometry relative="1" as="geometry">
                        <Array as="points">
                            <mxPoint x="470" y="240"/>
                            <mxPoint x="567" y="240"/>
                        </Array>
                    </mxGeometry>
                </mxCell>
                <mxCell id="14" value="ESP32" style="rounded=1;whiteSpace=wrap;html=1;fillColor=#008a00;fontColor=#ffffff;strokeColor=#005700;" vertex="1" parent="1">
                    <mxGeometry x="310" y="270" width="220" height="100" as="geometry"/>
                </mxCell>
                <mxCell id="17" style="edgeStyle=none;html=1;entryX=0.5;entryY=0;entryDx=0;entryDy=0;" edge="1" parent="1" source="15" target="14">
                    <mxGeometry relative="1" as="geometry">
                        <mxPoint x="190" y="250" as="targetPoint"/>
                        <Array as="points">
                            <mxPoint x="190" y="240"/>
                            <mxPoint x="420" y="240"/>
                        </Array>
                    </mxGeometry>
                </mxCell>
                <mxCell id="15" value="Sensor masuk" style="rounded=1;whiteSpace=wrap;html=1;fillColor=#0050ef;fontColor=#ffffff;strokeColor=#001DBC;" vertex="1" parent="1">
                    <mxGeometry x="130" y="150" width="120" height="60" as="geometry"/>
                </mxCell>
                <mxCell id="18" style="edgeStyle=none;html=1;" edge="1" parent="1" source="16">
                    <mxGeometry relative="1" as="geometry">
                        <mxPoint x="420" y="270" as="targetPoint"/>
                        <Array as="points">
                            <mxPoint x="370" y="240"/>
                            <mxPoint x="420" y="240"/>
                        </Array>
                    </mxGeometry>
                </mxCell>
                <mxCell id="16" value="Sensor Keluar" style="rounded=1;whiteSpace=wrap;html=1;fillColor=#0050ef;fontColor=#ffffff;strokeColor=#001DBC;" vertex="1" parent="1">
                    <mxGeometry x="305" y="150" width="120" height="60" as="geometry"/>
                </mxCell>
                <mxCell id="19" value="MQTT" style="rounded=1;whiteSpace=wrap;html=1;fillColor=#d80073;fontColor=#ffffff;strokeColor=#A50040;" vertex="1" parent="1">
                    <mxGeometry x="500" y="150" width="120" height="60" as="geometry"/>
                </mxCell>
                <mxCell id="21" value="LCD" style="rounded=1;whiteSpace=wrap;html=1;fillColor=#6a00ff;fontColor=#ffffff;strokeColor=#3700CC;" vertex="1" parent="1">
                    <mxGeometry x="220" y="440" width="120" height="60" as="geometry"/>
                </mxCell>
                <mxCell id="22" value="LED" style="rounded=1;whiteSpace=wrap;html=1;fillColor=#6a00ff;fontColor=#ffffff;strokeColor=#3700CC;" vertex="1" parent="1">
                    <mxGeometry x="410" y="450" width="120" height="60" as="geometry"/>
                </mxCell>
            </root>
        </mxGraphModel>
    </diagram>
</mxfile>